# xmcd
#
# Track frame offsets: 
#        150
#        13980
#        25302
#        36707
#        46532
#        56637
#        67905
#        76760
#        88135
#        102265
#        113165
#        124557
#        138745
#        151645
#        161055
#        172390
#        182637
#        193745
#        206255
#        217307
#        230855
#        240645
#        250535
#
# Disc length: 3475 seconds
#
# Revision: 1
# Processed by: cddbd v1.5.2PL0 Copyright (c) Steve Scherf et al.
# Submitted via: ExactAudioCopy v0.99pb5
#
DISCID=460d9117
DTITLE=Various Artist - Pebbles Vol. 7
DYEAR=1994
DGENRE=Rock
TTITLE0=The Lost Agency - One Girl Man
TTITLE1=The Foggy Notions - Take Me Back And Hold Me
TTITLE2=The Cryan Shames - Ben Franklin's Almanac
TTITLE3=The Revelles - Little Girl
TTITLE4=Oscar And Majestics - I Can't Explain
TTITLE5=The Trolls - Every Day And Every Night
TTITLE6=The Children Of Darkness - Sugar Shack A Go Go
TTITLE7=The Factory - High Blood Pressure
TTITLE8=Von Ruden - The Spider And The Fly
TTITLE9=The Ides Of March - I'll Keep Searching
TTITLE10=Gary And Knight Lites - Take Me Back
TTITLE11=Bobby Brelyn - Hanna
TTITLE12=The Commons Ltd - I'm Gonna Change The World
TTITLE13=Lord And The Flies - Echoes
TTITLE14=The Berries - What In The World
TTITLE15=The Vectors - It's Been A Day Or Two
TTITLE16=The Malibus - I'm Cryin'
TTITLE17=The Cardinals - Go Go Baby
TTITLE18=Wet Paint - Shame
TTITLE19=Wet Paint - At The River's Edge
TTITLE20=Jimmy Null And The Inversions - I Still Care For You
TTITLE21=The Lost Agency - Time To Dream
TTITLE22=Barney Pip - Let It All Hang Out
EXTD=
EXTT0=
EXTT1=
EXTT2=
EXTT3=
EXTT4=
EXTT5=
EXTT6=
EXTT7=
EXTT8=
EXTT9=
EXTT10=
EXTT11=
EXTT12=
EXTT13=
EXTT14=
EXTT15=
EXTT16=
EXTT17=
EXTT18=
EXTT19=
EXTT20=
EXTT21=
EXTT22=
PLAYORDER=
